<svg xmlns="http://www.w3.org/2000/svg" viewBox="0 0 360 420" fill="none">
  <defs>
    <linearGradient id="bg-v" x1="80" y1="20" x2="280" y2="220" gradientUnits="userSpaceOnUse">
      <stop offset="0" stop-color="#1E293B"></stop>
      <stop offset="1" stop-color="#0F172A"></stop>
    </linearGradient>
    <linearGradient id="flake-v" x1="140" y1="60" x2="220" y2="180" gradientUnits="userSpaceOnUse">
      <stop offset="0" stop-color="#7DD3FC"></stop>
      <stop offset="0.55" stop-color="#38BDF8"></stop>
      <stop offset="1" stop-color="#0EA5E9"></stop>
    </linearGradient>
    <filter id="glow-v" x="-30%" y="-30%" width="160%" height="160%">
      <feGaussianBlur stdDeviation="2.2" result="b"></feGaussianBlur>
      <feMerge><feMergeNode in="b"></feMergeNode><feMergeNode in="SourceGraphic"></feMergeNode></feMerge>
    </filter>
    <clipPath id="squircle-v">
      <rect x="80" y="20" width="200" height="200" rx="44" ry="44"></rect>
    </clipPath>
  </defs>

  <g clip-path="url(#squircle-v)">
    <rect x="80" y="20" width="200" height="200" fill="url(#bg-v)"></rect>
    <circle cx="120" cy="50" r="90" fill="#38BDF8" opacity="0.06"></circle>
    <g transform="translate(80 20)">
      <g opacity="0.7" stroke="#7DD3FC" stroke-width="4.5" stroke-linecap="round" fill="none">
        <path d="M 138 64 A 46 46 0 1 0 138 136"></path>
      </g>
      <g filter="url(#glow-v)" stroke="url(#flake-v)" stroke-width="6.5" stroke-linecap="round" fill="none">
        <g>
          <line x1="100" y1="40" x2="100" y2="160"></line>
          <polyline points="92,50 100,42 108,50"></polyline>
          <polyline points="92,150 100,158 108,150"></polyline>
          <polyline points="88,72 100,84 112,72"></polyline>
          <polyline points="88,128 100,116 112,128"></polyline>
        </g>
        <g transform="rotate(60 100 100)">
          <line x1="100" y1="40" x2="100" y2="160"></line>
          <polyline points="92,50 100,42 108,50"></polyline>
          <polyline points="92,150 100,158 108,150"></polyline>
          <polyline points="88,72 100,84 112,72"></polyline>
          <polyline points="88,128 100,116 112,128"></polyline>
        </g>
        <g transform="rotate(120 100 100)">
          <line x1="100" y1="40" x2="100" y2="160"></line>
          <polyline points="92,50 100,42 108,50"></polyline>
          <polyline points="92,150 100,158 108,150"></polyline>
          <polyline points="88,72 100,84 112,72"></polyline>
          <polyline points="88,128 100,116 112,128"></polyline>
        </g>
      </g>
      <circle cx="100" cy="100" r="5.5" fill="#E0F2FE"></circle>
    </g>
  </g>

  <g font-family="Inter, -apple-system, 'Segoe UI', sans-serif">
    <text x="235" y="300" font-size="44" font-weight="700" letter-spacing="-1.2" fill="#0F172A" text-anchor="end">CoolTrack</text>
    <text x="249" y="300" font-size="44" font-weight="300" letter-spacing="-1" fill="#0EA5E9" text-anchor="start">Pro</text>
    <text x="180" y="336" font-size="13" font-weight="500" letter-spacing="3" fill="#64748B" text-anchor="middle">GESTÃO HVAC</text>
  </g>
</svg>
