<svg xmlns="http://www.w3.org/2000/svg" viewBox="0 0 200 200" fill="none">
  <defs>
    <clipPath id="squircle-m">
      <rect x="0" y="0" width="200" height="200" rx="44" ry="44"></rect>
    </clipPath>
  </defs>
  <g clip-path="url(#squircle-m)">
    <rect width="200" height="200" fill="transparent"></rect>

    <g opacity="0.7" stroke="#38BDF8" stroke-width="4.5" stroke-linecap="round" fill="none">
      <path d="M 138 64 A 46 46 0 1 0 138 136"></path>
    </g>

    <g stroke="#38BDF8" stroke-width="6.5" stroke-linecap="round" fill="none">
      <g>
        <line x1="100" y1="40" x2="100" y2="160"></line>
        <polyline points="92,50 100,42 108,50"></polyline>
        <polyline points="92,150 100,158 108,150"></polyline>
        <polyline points="88,72 100,84 112,72"></polyline>
        <polyline points="88,128 100,116 112,128"></polyline>
      </g>
      <g transform="rotate(60 100 100)">
        <line x1="100" y1="40" x2="100" y2="160"></line>
        <polyline points="92,50 100,42 108,50"></polyline>
        <polyline points="92,150 100,158 108,150"></polyline>
        <polyline points="88,72 100,84 112,72"></polyline>
        <polyline points="88,128 100,116 112,128"></polyline>
      </g>
      <g transform="rotate(120 100 100)">
        <line x1="100" y1="40" x2="100" y2="160"></line>
        <polyline points="92,50 100,42 108,50"></polyline>
        <polyline points="92,150 100,158 108,150"></polyline>
        <polyline points="88,72 100,84 112,72"></polyline>
        <polyline points="88,128 100,116 112,128"></polyline>
      </g>
    </g>

    <circle cx="100" cy="100" r="5.5" fill="#38BDF8"></circle>
  </g>
</svg>